<svg id="Capa_1" data-name="Capa 1" xmlns="http://www.w3.org/2000/svg" viewBox="0 0 595.28 841.89"><defs><style>.cls-1{fill:none;}</style></defs><path class="cls-1" d="M472.82,28.6a1.43,1.43,0,0,1-.38-.28h0A1.43,1.43,0,0,0,472.82,28.6Z"/><path d="M578,197.26a14,14,0,0,1-5.53-6.73c-.29-.66-.44-1.41.39-1.89,2,.08,3.56,2,5.91,1.17a13.15,13.15,0,0,0,0-2.51,19,19,0,0,0-6.11-10.62c-2.76-2.54-5.73-4.85-8.64-7.23-4.52-3.69-9.12-7.28-13.58-11a31.4,31.4,0,0,1-7.85-9.59,16,16,0,0,1-2-8.53c.38-5.49,3.61-9,8.08-11.72,6.18-3.71,14.62-.39,16.37,5.53.18.63.32,1.58,1.34,1.32s.76-1.09.7-1.8a4.83,4.83,0,0,0-.21-.93c-.94-3-1.67-6-2.86-8.88-6.89-16.58-17.5-30.62-30.23-43.1C513.42,60.81,489.15,47.77,461.94,40a212.06,212.06,0,0,0-34.05-6.62,125.76,125.76,0,0,0-14.1-1c-9.9,0-19.8.33-29.71.32-12.31,0-24.62-.31-36.93-.34q-76.41-.16-152.82-.22a85.15,85.15,0,0,0-16.49,1.09c-4.61.91-9.18,2.09-13.81,2.92a187.42,187.42,0,0,0-37.25,10.59C95.78,59.26,71,79.42,52.67,107.43a88.34,88.34,0,0,0-10,20.13,52.14,52.14,0,0,0-1.41,5.8,1.39,1.39,0,0,0,1.23,1.92l1.27-2.41c2.66-5.08,8.12-7.48,13.33-5.7a15.89,15.89,0,0,1,9.13,7.71,12.49,12.49,0,0,1,1.22,8.6A18.31,18.31,0,0,1,63.35,152a79,79,0,0,1-8.24,8.33c-4.43,3.78-9.23,7.15-13.72,10.87A88.73,88.73,0,0,0,33,179.09a14.45,14.45,0,0,0-3.8,8.64c-.17,1.9.38,2.33,2.23,1.77,1.28-.39,2.52-.89,4.15-1.48a6.44,6.44,0,0,1,0,2,14.23,14.23,0,0,1-4.84,6.42c-1.43,1.12-3,1.14-5,.33q-.33,226.2-.64,451.57c0,.21.2.41.41.77,2.09-1.92,3.93-.83,5.39.7A43.79,43.79,0,0,1,34.83,655a2,2,0,0,1,.29.9c.09,1-.53,1.52-1.47,1.21s-2.07-.86-3.12-1.23c-1.42-.5-2.1,0-2.1,1.52a7.87,7.87,0,0,0,.26,1.65,18,18,0,0,0,5.37,9.45c3.23,3,6.68,5.7,10.07,8.51,4.67,3.87,9.45,7.63,14,11.61a26.9,26.9,0,0,1,7.44,10.18,13.61,13.61,0,0,1,.31,10.73,15.47,15.47,0,0,1-9.59,8.81c-5.56,1.95-12.53-1.33-14.08-6.73a10.21,10.21,0,0,0-1-1.71c-.44.73-.88,1.13-.91,1.57a9.49,9.49,0,0,0,.26,2.36,48.75,48.75,0,0,0,3.93,11c7.26,15.95,17.76,29.57,30.37,41.58,26.87,25.59,59.46,39.15,95.68,44.85,6.07,1,12.19,1.59,18.3,2.31a143.62,143.62,0,0,0,17,1.11c48.22-.07,96.44,0,144.67-.07,21,0,42.06.71,63.06-.94,5.81-.46,11.65-.83,17.42-1.59a217.75,217.75,0,0,0,32.51-7.05c29-8.44,54.23-23.21,74.78-45.57,9-9.81,16.95-20.42,22.75-32.49a54.78,54.78,0,0,0,4.85-13.24,9.07,9.07,0,0,0,.19-2.14,1.17,1.17,0,0,0-.69-.81,1.19,1.19,0,0,0-1,.45c-.39.59-.62,1.29-1,1.93a11,11,0,0,1-13.86,5.31,16.49,16.49,0,0,1-8.14-6.8,12.35,12.35,0,0,1-1.83-6.37,17.24,17.24,0,0,1,2.9-9.48,37.64,37.64,0,0,1,8.48-9.4c4.46-3.64,9.07-7.09,13.51-10.74,3.14-2.59,6.23-5.26,9.12-8.12a15.81,15.81,0,0,0,4.32-8.42,4,4,0,0,0-.26-2.71c-.68-1-1.73,0-2.62.16-1.11.25-2.08,1.21-3.56.72.06-.56-.06-1.17.18-1.57a35.61,35.61,0,0,1,3.3-5c1.44-1.66,3.26-2.84,5.7-2.15.17.05.42-.15.61-.22.68-5.14,1.17-447.56.48-451.28C580.55,197.65,579.33,198.08,578,197.26Zm3,5.16c-.07,5.36-.19,10.72-.25,16.07q-.08,7.08-.08,14.15,0,31.55-.06,63.09,0,16.44-.09,32.87-.11,33-.2,66-.07,42.22-.09,84.44,0,30.47-.1,60.93,0,15.84-.09,31.66-.07,25.08-.12,50.14c0,6.31.08,12.63.11,18.94,0,.88,0,1.76-.08,2.64a3.9,3.9,0,0,1-2.81,3.79c-4.05,1.29-5.87,4.51-7.21,8.1-1,2.84.51,4.55,3.49,4,.85-.15,1.67-.41,3-.74-.43,1.32-.66,2.37-1.09,3.33a25.78,25.78,0,0,1-7.92,9.48c-4.21,3.31-8.47,6.56-12.67,9.88a74.45,74.45,0,0,0-11.19,10.47,23.09,23.09,0,0,0-5.21,9.87c-1.81,8.25,2.87,16.62,10.63,18.76a15.11,15.11,0,0,0,12-1.68,6.5,6.5,0,0,1,2.4-1c-.3.93-.55,1.89-.92,2.79C557.55,732,550.59,742.34,542.55,752c-14.82,17.72-33,31-53.81,40.87a193.34,193.34,0,0,1-50.35,15.79,293.93,293.93,0,0,1-52.73,4.22c-15.76-.13-31.51-.05-47.27-.07q-26.62,0-53.26-.08-42-.12-84-.3A174.9,174.9,0,0,1,170.23,809c-12.5-2.31-24.86-5.16-36.8-9.59-22-8.16-42-19.7-58.86-36.08-12.44-12.06-22.83-25.67-29.77-41.7-.57-1.32-1-2.68-1.54-4,0-.12.06-.3.16-.72.83.55,1.48,1,2.14,1.43,5.11,3.28,10.27,3.25,15.32,0,6.95-4.44,9.45-11.91,6.54-19.64a20.87,20.87,0,0,0-3.39-6,80.47,80.47,0,0,0-8.33-8.59c-4.21-3.68-8.72-7-13.05-10.55-2.53-2.07-5-4.19-7.41-6.45a18.21,18.21,0,0,1-4.4-7.06,16.12,16.12,0,0,1-.43-1.8c1.21.23,2.2.47,3.2.59,2.8.37,4-1,3.2-3.63-1.17-3.94-3.45-7.09-7.34-8.65A3.37,3.37,0,0,1,27,643c0-7.68-.25-15.35-.25-23q0-70.77.11-141.53,0-24.59.15-49.18.15-35,.33-70c.05-12,.12-24,.14-36q.09-37.18.12-74.36c0-14.47-.2-28.94-.3-43.41,0-1.2,0-2.4,0-3.6a2.19,2.19,0,0,1,1.75-2.47c4.18-1.24,6.49-4.43,8.24-8.15a5.21,5.21,0,0,0,.45-1.61c.23-1.93-.77-3.08-2.74-3a36.86,36.86,0,0,0-3.84.57,13.61,13.61,0,0,1,2.16-5.44,28,28,0,0,1,7-7.46c4-3.09,8.07-6,11.92-9.29s7.48-6.51,11-10a20.55,20.55,0,0,0,6-12.26,15.82,15.82,0,0,0-17.08-17.79c-1.83.19-3.58,1.24-5.32,2a15.76,15.76,0,0,1-2.81,1.33c.26-.84.45-1.7.78-2.5a111,111,0,0,1,12.94-22.91c16.92-23.53,39.16-40.32,65.5-52a187.32,187.32,0,0,1,45.35-13.44c7.17-1.18,14.36-2.32,21.59-3,5.71-.53,11.5-.4,17.25-.41,11,0,21.91.08,32.87.08q68.13,0,136.27-.06c9.44,0,18.87,0,28.31-.11a167.81,167.81,0,0,1,32.41,3c12.51,2.28,24.87,5.11,36.81,9.57,21.36,8,40.78,19.17,57.39,34.87,12.18,11.5,22.37,24.58,29.6,39.8.89,1.88,1.68,3.8,2.47,5.72a20.15,20.15,0,0,1,.59,2.14,9.75,9.75,0,0,1-1.3-.7c-7.62-6.24-19.24-2.78-23,7a16.66,16.66,0,0,0,1.84,15.59,37.47,37.47,0,0,0,6.27,7.52c4.92,4.44,10.14,8.56,15.25,12.78,2.46,2,5,4,7.42,6.08a20.57,20.57,0,0,1,5.84,8.65c.16.45.24.91.46,1.76-1.12-.25-2-.4-2.88-.64a3.06,3.06,0,0,0-3.32.73c-.9,1-.59,2.06-.18,3.15,1.59,4.22,4,7.64,8.66,8.85C580.9,200.21,581,200.43,581,202.42Z"/><path d="M582.07,56.6c0-7.52.09-15-.13-22.55-.26-9-7.16-12.58-12.91-12.8-9-.35-18.06-.39-27.1-.44-3.34,0-6.68.3-10,.47-.62,1.47.32,1.76.9,2.22,2.67,2.09,5.12,4.37,6.55,7.52s1.08,5.61-1.5,7.8a38.7,38.7,0,0,1-6.76,4.45,53.27,53.27,0,0,1-6,2.38,17.28,17.28,0,0,0-8.64,6.91c-1,1.62-1,2.75.28,4.14a27.11,27.11,0,0,0,4.32,3.75,213,213,0,0,1,26.83,21.67c8.34,8,15.47,16.8,20.56,27.21a66.19,66.19,0,0,1,7.14,27.14,17.72,17.72,0,0,1-2.1,9.94,5.41,5.41,0,0,1-6.54,2.67,14.92,14.92,0,0,1-6.47-4.4c-1.2-1.35-1.09-1.85.27-3.16,1-1,1.2-1.69.23-2.63a12,12,0,0,0-3.48-2.43c-3.84-1.69-7.2,0-8.44,4a9.94,9.94,0,0,0,1.15,8.5,20.91,20.91,0,0,0,7.69,7.4c2.23,1.26,4.5,2.44,6.73,3.68,6.94,3.85,12.65,8.93,16.09,16.26a6.89,6.89,0,0,0,1,1.22c1.14-1.81.81-3.61.8-5.34Q582.32,114.4,582.07,56.6Zm-1.43,115.93a19.7,19.7,0,0,1-1.44-1.73,37.89,37.89,0,0,0-15.11-13,69.38,69.38,0,0,1-6.86-3.92,16.08,16.08,0,0,1-6.52-8.07,6.82,6.82,0,0,1,.45-5.78c1.38-2.53,3.48-3.17,6-1.82a21.21,21.21,0,0,1,1.95,1.3c-1.76,2.11-1.83,2.64-.59,4.84a14,14,0,0,0,9.69,6.8c2.46.54,4.36-.56,5.86-2.44a15.05,15.05,0,0,0,3-9.17,60.53,60.53,0,0,0-4.92-25.67A94.28,94.28,0,0,0,550.2,82a196.66,196.66,0,0,0-28.91-23.62A12.85,12.85,0,0,1,519.6,57c-2.5-2.36-2.4-3.8.41-5.7A24.44,24.44,0,0,1,522.26,50q6.06-3.15,12.14-6.26c.28-.14.57-.28.86-.4,8.14-3.45,7.67-11.65,4-16.28-1-1.24-2.11-2.39-3.38-3.83a13.12,13.12,0,0,1,1.89-.28c10.07,0,20.14,0,30.21.07,7.79.07,12.8,5.27,12.8,13.07,0,16.94-.06,33.89,0,50.83q.13,41.36.39,82.71v2.77Z"/><path d="M580.92,668.44a10.77,10.77,0,0,0-.83,1.28,33.59,33.59,0,0,1-13.37,14.67c-3,1.79-6.16,3.39-9.13,5.26a40.8,40.8,0,0,0-5.88,4.49,13.36,13.36,0,0,0-3.89,7.3c-.87,4.26,1.73,8.4,5.58,8.85a7.4,7.4,0,0,0,6.58-2.77c1.15-1.29,1.09-1.6-.23-2.91-1.08-1.07-1.22-1.64-.32-2.65a16.1,16.1,0,0,1,5.59-4.43,5.7,5.7,0,0,1,7.78,2.58,14.11,14.11,0,0,1,1.2,3.11,28.1,28.1,0,0,1,.34,11,71.38,71.38,0,0,1-12.52,32.56,122,122,0,0,1-16.23,18.57,191.47,191.47,0,0,1-24.93,19.85,31.07,31.07,0,0,0-4.64,3.75c-1.83,1.85-1.8,2.91-.34,5.08a18.23,18.23,0,0,0,9.08,6.76c1.72.66,3.47,1.23,5.14,2a21.66,21.66,0,0,1,7.11,4.81c2.17,2.28,2.65,4.66,1.23,7.47a21.4,21.4,0,0,1-3.13,4.49,36.59,36.59,0,0,1-4,3.46c-.52.42-1,.79-.47,1.83,1.64.14,3.46.41,5.27.41q14.52.06,29,0a22.55,22.55,0,0,0,5-.47c5.18-1.21,9.08-4,10.39-9.42a21.69,21.69,0,0,0,.52-4.76c.2-15.51.42-31,.49-46.52.1-21.19,0-42.38.12-63.56,0-8.32.3-16.63.4-24.94,0-2.29-.19-4.59-.3-6.88ZM580,743.29q-.15,30.21-.33,60.42c0,2.88-.24,5.75-.25,8.63,0,3.22-1.54,5.61-3.84,7.66-2.93,2.62-6.51,3.32-10.24,3.38-6.71.09-13.43.06-20.14.08H534.41l-.32-.37c.8-.73,1.63-1.44,2.4-2.22a13.72,13.72,0,0,0,3.84-6.78,9,9,0,0,0-3.61-9.72,23.56,23.56,0,0,0-3.54-2c-4.3-2.27-8.64-4.49-12.92-6.81a13.63,13.63,0,0,1-3-2.32c-1.09-1.1-1.1-2.06,0-3.13a28,28,0,0,1,3.61-2.76,188.38,188.38,0,0,0,34-29.07,81.8,81.8,0,0,0,20.67-40.18c1-5.06,1.4-10.16.14-15.21a16.36,16.36,0,0,0-2.28-5.2,6.34,6.34,0,0,0-7.67-2.3,16.22,16.22,0,0,0-8,6.28c-1.34,2-1.24,2.71.49,4.83-1.3,1.35-2.82,2.32-4.75,2a4.44,4.44,0,0,1-3.71-3.64,8.68,8.68,0,0,1-.15-3.29,11.82,11.82,0,0,1,4-7.17,38.57,38.57,0,0,1,5-3.64c2.24-1.38,4.56-2.65,6.91-3.85a31.42,31.42,0,0,0,12-10.42c.58-.86,1.26-1.65,1.91-2.45.08-.1.27-.1.64-.24.05.81.13,1.56.12,2.31Q580.16,709.72,580,743.29Z"/><path d="M26.8,177.12a6.9,6.9,0,0,0,.45-.85,31.54,31.54,0,0,1,11.47-13.54c3.19-2.11,6.6-3.88,9.88-5.87A53.89,53.89,0,0,0,54,153.31a13.55,13.55,0,0,0,5-7.18,12.58,12.58,0,0,0,.36-5.17c-.81-4.91-5.6-7-9.86-4.38a9.55,9.55,0,0,0-1.85,1.51c-1.39,1.4-1.36,1.75.08,3.26,1,1.05,1.15,1.64.12,2.65a27.64,27.64,0,0,1-4.76,4c-3.6,2.18-7.36.81-9-3.14a21.25,21.25,0,0,1-1.36-9.89,69.48,69.48,0,0,1,7.49-26.82c5.13-10,12.28-18.48,20.24-26.3a197.5,197.5,0,0,1,26.7-21.45,29.75,29.75,0,0,0,4.4-3.67C93,55.17,93,54,91.85,52.18a15,15,0,0,0-5.91-5.48,48.55,48.55,0,0,0-5.5-2.34,28.64,28.64,0,0,1-9.34-5.25c-3.07-2.75-3.54-5.58-1.56-9.21,1.29-2.36,2.87-3.87,5.58-6.2,1.23-1.05,2.29-1.85,3-2.37l-1.18-.19s-1.38-.2-2.83-.32c-4.36-.37-24.21-.42-24.21-.42a101.07,101.07,0,0,0-12.66.85c-6.46.85-10.54,5.62-10.7,12.15-.17,7.11-.37,14.22-.39,21.33C26,81.19,26,107.65,26,134.11c0,8.24-.21,16.47-.3,24.7-.07,5-.13,10.07-.15,15.11a5.8,5.8,0,0,0,.76,3.57A3,3,0,0,0,26.8,177.12Zm.51-64.89c0-7.67.06-15.35.12-23q.2-27.34.42-54.69A11.67,11.67,0,0,1,37.72,23a72.49,72.49,0,0,1,9.56-.57c7.11-.08,14.23,0,21.35,0,1.47,0,2.94-.14,4.41-.21l.18.42c-.7.7-1.4,1.42-2.12,2.12a14.44,14.44,0,0,0-3.81,6A9.16,9.16,0,0,0,71,41.7a31.28,31.28,0,0,0,3.36,1.86c4,2.06,8,4.09,11.89,6.2a18.75,18.75,0,0,1,3.34,2.31c1.76,1.51,1.76,2.68,0,4.17a31.41,31.41,0,0,1-3.1,2.25A188.34,188.34,0,0,0,52.64,87.38c-11,11.93-18.26,25.74-21.09,41.79-.86,4.85-1.12,9.7.25,14.49a14.83,14.83,0,0,0,2,4.32,6.7,6.7,0,0,0,8.53,2.24,17.53,17.53,0,0,0,7-5.69c1.55-2.11,1.48-3.05-.24-5.17a14.33,14.33,0,0,1,1.44-1.16c3.31-2,6.71-.36,7.24,3.5a9.86,9.86,0,0,1-1.32,6.23,15.59,15.59,0,0,1-5.61,5.79c-2.51,1.56-5,3.09-7.69,4.4a35.51,35.51,0,0,0-14.43,12.64c-.33.5-.78.92-1.54,1.81-.09-1.27-.18-2-.18-2.77Z"/><path d="M69.7,806.78a36.53,36.53,0,0,1,6.4-4.15,59.07,59.07,0,0,1,6-2.37,17.64,17.64,0,0,0,8.56-6.67c1.29-2,1.31-3-.31-4.7a24.07,24.07,0,0,0-4-3.4,212.12,212.12,0,0,1-26.15-21c-7.46-7.08-14.12-14.77-19.17-23.8a70.75,70.75,0,0,1-9.27-29.48A22.56,22.56,0,0,1,33,701.06c1.73-4.39,6.09-5.84,10-3.19a29.3,29.3,0,0,1,4.32,4.1c.66.68.48,1.4-.24,2.08-1.68,1.58-1.71,2.39,0,3.74,2.2,1.69,4.61,3,7.51,1.87s3.93-3.77,4.09-6.74a9.9,9.9,0,0,0,0-1.44,11.44,11.44,0,0,0-2.54-6.1,24.89,24.89,0,0,0-8.47-6.91,105.37,105.37,0,0,1-9.89-5.86c-5-3.5-9-7.83-11.25-13.67a3.91,3.91,0,0,0-.69-.91l-.61.08a24.79,24.79,0,0,0-.47,2.95c-.06,1.27.08,2.56.09,3.83q.12,36.11.24,72.19.15,32.73.42,65.46c.06,6.44,4.25,11,10.7,11.73a117.75,117.75,0,0,0,12.43.84c8.23,0,16.47-.21,24.7-.4.8,0,2-.19,2.3-.69.54-1-.77-1.37-1.4-1.87a20.88,20.88,0,0,1-6.09-7C66.47,811.77,66.83,809.17,69.7,806.78Zm-2.61,10.49a27.74,27.74,0,0,0,2.77,3.59c.48.59,1,1.12,1.85,2-.83.08-1.14.13-1.46.13q-15.58,0-31.18-.06a12.71,12.71,0,0,1-7-2.14,11.15,11.15,0,0,1-5.38-8.88c-.07-1-.11-2.07-.12-3.11,0-8.47,0-16.95,0-25.42q-.15-53.49-.31-107c0-1,0-2,0-3.62a10.24,10.24,0,0,1,1.28,1.33A34.21,34.21,0,0,0,39.8,686c2.53,1.52,5.16,2.87,7.76,4.28a20.39,20.39,0,0,1,8,7.37,9.55,9.55,0,0,1,1.14,6.69c-.43,2.78-3.89,5.27-6.72,3.15a19.37,19.37,0,0,0-1.76-1.08c.52-.93,1.27-1.7,1.32-2.5a5.44,5.44,0,0,0-.91-2.67c-2.19-3.78-5.68-5.78-9.8-6.7-2.12-.47-3.9.58-5.29,2.16a13.87,13.87,0,0,0-3.26,8.58c-.6,9.87,1.63,19.17,5.48,28.2,5.29,12.43,13.4,22.78,23.07,32.08a194.38,194.38,0,0,0,26.81,21.68,15.34,15.34,0,0,1,2.91,2.47c1.36,1.52,1.22,2.84-.32,4.13a12.46,12.46,0,0,1-2.19,1.46q-5.7,3-11.45,6c-1.06.56-2.17,1-3.24,1.56C65.64,805.85,63.88,811.64,67.09,817.27Z"/><path d="M447.08,821.05a4.21,4.21,0,0,0-4.88-1.54,81.33,81.33,0,0,1-23.69,3q-44-.19-88-.34-32.64-.09-65.26-.12-35.26,0-70.54,0c-2.95,0-5.91.2-8.87.16a104.32,104.32,0,0,1-10.76-.51c-3.79-.48-7.52-1.39-11.26-2.22-1.24-.28-2.46-.47-3.41.38a51,51,0,0,0-3.5,3.78c1.45.27,2.42.52,3.42.61s2.07,0,3.11,0q46.54-.08,93.09-.15,22.54,0,45.1.1,42.23.21,84.44.47c16.32.07,32.63.08,48.94.14,1.67,0,3.34.29,5,.32,3.11.06,6.22,0,9.95,0a11.36,11.36,0,0,0-.91-1.94C448.43,822.41,447.68,821.79,447.08,821.05ZM161,822.47c.72-.58,1.07-1.09,1.36-1.06a22.8,22.8,0,0,1,4.72,1A14.53,14.53,0,0,1,161,822.47Zm276.14.15c2.07-.47,3.9-.94,5.74-1.28,1.13-.2,1.26,0,2.14,1.5A19.58,19.58,0,0,1,437.15,822.62Z"/><path d="M160.21,24.86a4.52,4.52,0,0,0,5,1.53c1-.26,2-.67,3-.87a141.61,141.61,0,0,1,25.45-2.94q19.67-.39,39.33-.41c17.12,0,34.23.29,51.34.28,23.11,0,46.22-.36,69.33-.26,21.18.09,42.37.5,63.55.94,6.06.12,12.12.72,18.16,1.37a55.15,55.15,0,0,1,8.14,1.89A4,4,0,0,0,448.13,25c.62-.82,1.46-1.48,2.11-2.28a2.31,2.31,0,0,0,.51-1.42c0-.21-.74-.47-1.17-.53a14.14,14.14,0,0,0-2.16,0c-4.08.11-8.15.34-12.23.33q-24-.06-48-.24c-22.71-.13-45.42-.38-68.13-.4-27.94,0-34.49.06-86.6.19-20.07.05-43,.09-68.34.1-1.76,0-3.52,0-5.28,0a1.49,1.49,0,0,0-1.13.63c-.13.31.14.89.4,1.22C158.78,23.36,159.54,24.07,160.21,24.86Zm286.08-2c-.21,1.17-.8,1.75-1.63,1.67a22.66,22.66,0,0,1-6.75-1.67Zm-284,0c2.56-.19,5.12-.07,7.68-.08l.09.55c-2,.41-4,.92-6.09,1.17-.56.06-1.22-.66-1.84-1Z"/><path d="M464.4,32.39c1.63.64,3.3,1.18,5,1.67a145.24,145.24,0,0,1,29.39,12.06c2.86,1.58,5.82,3,8.77,4.42a6,6,0,0,0,5.11.57,5.88,5.88,0,0,0,.22-.67,2.89,2.89,0,0,0,0-.72c-.73-4.15,1.28-6.9,4.63-8.91,2-1.24,4.17-2.35,6.23-3.58a40.14,40.14,0,0,0,4.41-2.87,4.38,4.38,0,0,0,1.48-5.55,13.3,13.3,0,0,0-11.71-8.17c-7.58-.14-15.17-.26-22.76-.42-9.58-.19-19.15-.82-28.74-.07-2.11.16-3.49.86-4.33,2.72A20.23,20.23,0,0,0,461,25.51C460,28.84,461.16,31.13,464.4,32.39Zm-.49-8.81A4,4,0,0,1,467,22c2.08-.12,4.15-.35,6.23-.34,6.47,0,12.95.11,19.42.17,7,.07,14.07.1,21.11.2,2,0,4,.3,6,.33a4.9,4.9,0,0,1,3.77,1.78,44.82,44.82,0,0,1,3.79,4.61c1.34,2.05,1,3.58-1.09,4.9-3,1.93-6.14,3.74-9.29,5.48a10.78,10.78,0,0,0-5.47,7A26.39,26.39,0,0,0,511,50a20.74,20.74,0,0,1-2.2-.68,54.44,54.44,0,0,1-5.65-2.59c-11.3-6.48-23.38-11-35.77-14.85-.38-.12-.77-.21-1.15-.34C462.48,30.22,461.47,26.8,463.91,23.58Z"/><path d="M144.27,814.32a13.24,13.24,0,0,0-3-1.42c-3.63-1.22-7.28-2.38-10.93-3.54a130,130,0,0,1-20.8-9.13c-3.25-1.7-6.52-3.38-9.84-4.94-1.55-.73-3.22-1.48-5.07-.44a4.28,4.28,0,0,0-.12,1.16c.79,3.94-1.06,6.68-4.12,8.72-2.19,1.45-4.6,2.55-6.84,3.92a41.22,41.22,0,0,0-4.86,3.42,3.76,3.76,0,0,0-1.14,4.16,15.33,15.33,0,0,0,5.17,7,8.21,8.21,0,0,0,6.37,2,65.5,65.5,0,0,1,7.66.21c1.51.06,3,.17,4.54.19,8.63.12,17.26.25,25.88.32,4.24,0,8.47,0,12.7-.14,3.58-.11,5.53-1.75,6.57-5.21A5.18,5.18,0,0,0,144.27,814.32Zm.19,5a12.8,12.8,0,0,1-.59,2.07,3.67,3.67,0,0,1-3.6,2.64c-4.3.11-8.61.38-12.92.34-11.66-.08-23.31-.27-35-.46-1.91,0-3.82-.25-5.72-.46a3.18,3.18,0,0,1-1.53-.58A19.56,19.56,0,0,1,80,817.2c-1.19-2.15-1-3.48,1.06-5a45.29,45.29,0,0,1,4.25-2.67c1.52-.87,3.09-1.66,4.63-2.51,4.26-2.36,6.54-5.89,6.24-11.18a20.11,20.11,0,0,1,2.31.68c2.11.94,4.28,1.79,6.28,2.93a165.33,165.33,0,0,0,34.41,14.26c.91.27,1.84.54,2.72.88C144.31,815.56,145,816.75,144.46,819.29Z"/><path d="M526.63,811.35a29.14,29.14,0,0,0-3.85-2.39c-2.48-1.45-5-2.76-7.44-4.35a8.1,8.1,0,0,1-3.85-7.53c0-.7-.05-1.4-.11-2.58a17.72,17.72,0,0,0-3.3.46,25.8,25.8,0,0,0-4.4,1.86,173.37,173.37,0,0,1-36.78,15.45,37,37,0,0,0-4.08,1.39c-2.5,1-3.38,2.55-3.23,5.25a10.26,10.26,0,0,0,1.88,5.11,3.48,3.48,0,0,0,3,1.7c2.71.1,5.42.39,8.13.38,6.72,0,13.43-.21,20.14-.31,8-.12,16-.24,24-.31,5.32-.05,8.8-3,11.26-7.3C529.43,815.56,529,813.25,526.63,811.35ZM525.07,819c-.24.32-.51.62-.75.94A9.88,9.88,0,0,1,515.9,824c-14.06,0-28.12.25-42.18.35-2.55,0-5.11-.2-7.66-.39a5.4,5.4,0,0,1-4.28-7.3,4.31,4.31,0,0,1,3-2.15c3.12-1,6.27-1.88,9.36-2.93A190.53,190.53,0,0,0,502.87,799c1.89-1,3.91-1.8,5.88-2.66a5.68,5.68,0,0,1,1.25-.21c.05.65.12,1.19.13,1.74a9.89,9.89,0,0,0,5.07,8.69c2.81,1.68,5.67,3.28,8.47,5C527.56,814,527.82,815.39,525.07,819Z"/><path d="M80.57,34.43A21.1,21.1,0,0,0,84,36.64c2.21,1.26,4.5,2.41,6.7,3.71,3.49,2.06,5.57,4.91,5,9.23-.18,1.41.39,2,1.86,1.68a20.83,20.83,0,0,0,4.76-1.53c3.17-1.5,6.29-3.11,9.38-4.79A119.71,119.71,0,0,1,134.4,35.5c3.13-.94,6.25-1.91,9.34-3,3.59-1.24,4.81-3.69,3.72-7.33a17.42,17.42,0,0,0-1.16-2.62,4.31,4.31,0,0,0-1.59-1.86,4.16,4.16,0,0,0-2.18-.56c-1.73,0-12.59-.07-27.53-.07h-1.44c-7.59.09-15.17.22-22.76.26-5.54,0-9.08,3.05-11.54,7.62A4.88,4.88,0,0,0,80.57,34.43Zm1.06-6.62A32.67,32.67,0,0,1,86,23.09a4.54,4.54,0,0,1,2.6-1c4-.26,8-.46,12-.53,8.07-.13,16.14-.22,24.2-.22,4.87,0,9.74.2,14.61.32a15.46,15.46,0,0,1,1.67.15,5.37,5.37,0,0,1,4.7,6.69,3.8,3.8,0,0,1-3,2.78c-2.82.86-5.66,1.66-8.46,2.59a187.79,187.79,0,0,0-30,13c-1.61.87-3.3,1.59-5,2.31a12.29,12.29,0,0,1-2.06.47c.3-5.41-2-8.9-6.36-11.22-2.75-1.45-5.41-3.09-8-4.76S79.71,30.45,81.63,27.81Z"/><path d="M574.86,68.8c-.13-11.1-.18-22.2-.24-33.3,0-3.53-1.6-5.55-5.2-6.44a10.55,10.55,0,0,0-2.37-.31q-9.94-.15-19.88-.22c-.28,0-1.26,0-1.45.45s.26.74.8,1.74a12.84,12.84,0,0,1,.72,1.65c2.71,6.9.94,12.9-5.94,15.92-1.46.64-3,1.18-4.46,1.74a19.09,19.09,0,0,0-6.3,3.82c-1.34,1.17-2,1.75-2,2.36-.13,2,4.17,3.06,9.85,6.7,3.33,2.14,5.44,4.1,9.25,7.61A104.64,104.64,0,0,1,555.73,79c2.56,3,5,6.05,7.24,9.23a111.91,111.91,0,0,1,6.52,10c1.88,3.36,3.33,7,5,10.58,1-.74.93-1.73.92-2.64C575.24,93.71,575,81.26,574.86,68.8Zm-.68,34.1-.54.09c-.45-.81-.91-1.62-1.35-2.44a119.34,119.34,0,0,0-22.6-30.17c-5-4.76-10.8-8.47-16.32-12.56-.8-.59-1.54-1.29-2.55-2.14a14.35,14.35,0,0,1,2.34-2c1.76-.91,3.62-1.64,5.44-2.45a44.13,44.13,0,0,0,5-2.33,12.66,12.66,0,0,0,5.67-14.5c-.31-1.15-.72-2.28-1.17-3.7a13.31,13.31,0,0,1,2.33-.41c5.59,0,11.19,0,16.78,0a6.33,6.33,0,0,1,1,.12c3.56.55,4.72,1.74,4.91,5.31.22,4.06.4,8.13.45,12.2.09,8.87,0,17.74.15,26.6.13,8.63.45,17.25.67,25.87C574.33,101.25,574.23,102.08,574.18,102.9Z"/><path d="M573.38,737.57c-1,2.26-1.75,4.62-2.91,6.77-9.57,17.78-22.41,32.57-39.72,43.26-.61.38-1.24.73-1.82,1.14-1.33.94-1.43,1.48-.35,2.69a16.73,16.73,0,0,0,6.68,4.5,63.27,63.27,0,0,1,7,3.11,9.1,9.1,0,0,1,4.86,7.52,14,14,0,0,1-1.54,8.35,26.06,26.06,0,0,0-1.05,2.54c1.08.07,1.78.15,2.48.15q6.48,0,13,0c2.23,0,4.47,0,6.71-.08,4.33-.25,6.5-2.51,6.71-6.86,0-.4,0-.8,0-1.2.11-9.1.2-18.21.34-27.31q.32-20.85.65-41.69a23.92,23.92,0,0,0-.3-2.91Zm-.24,8.92c-.22,11.74-.46,23.49-.66,35.23-.15,8.87-.24,17.74-.4,26.61a27,27,0,0,1-.38,3.8,3.91,3.91,0,0,1-3.51,3.42,6.77,6.77,0,0,1-1.19.13q-9.35,0-18.68.07a11.6,11.6,0,0,1-1.4-.2c.22-.67.38-1.26.6-1.82a13.46,13.46,0,0,0-6.75-17.58c-1.22-.58-2.58-.88-3.8-1.44a61.73,61.73,0,0,1-6-3c-1.27-.75-1.21-1.49,0-2.44.68-.56,1.44-1,2.17-1.5,9.63-6.54,18.63-13.79,25.78-23.1A154,154,0,0,0,571.7,745c.26-.48.56-.93.84-1.4l.6.09C573.14,744.62,573.16,745.56,573.14,746.49Z"/><path d="M37.19,99.7A114.52,114.52,0,0,1,57.52,72.57,97.88,97.88,0,0,1,77.87,56.71c1.6-.9,1.63-1.27.5-2.78A12.79,12.79,0,0,0,71.7,49.1a52.18,52.18,0,0,1-5-1.78c-6.16-2.59-8.71-8.81-6.2-15,.41-1,.85-2,1.39-3.34-.77-.07-1.16-.14-1.55-.14-6.79-.15-13.58-.31-20.37-.43-4.17-.08-6.23,1.77-6.45,6-.19,3.66-.2,7.34-.25,11Q33,66.08,32.78,86.8c-.09,6.07-.21,12.14-.28,18.21,0,1-.18,2.19.9,3.1C34.71,105.18,35.75,102.33,37.19,99.7Zm-3.48-5.81c.67-17.09.9-34.19.87-51.3,0-2.71.21-5.43.43-8.13s1-3.4,3.66-3.91a10.08,10.08,0,0,1,1.89-.24c5.67,0,11.35,0,17,0,.53,0,1.07.11,1.85.19-.27.88-.5,1.62-.72,2.36a12.56,12.56,0,0,0,7.12,15.66c2.4,1.08,4.85,2.07,7.25,3.14a7.17,7.17,0,0,1,3.71,3.19C58.28,66.77,44.85,83.19,33.94,102.68,33.84,99.39,33.6,96.64,33.71,93.89Z"/><path d="M77.19,791c1.13-1.72,1.09-2.14-.75-3.17a86.87,86.87,0,0,1-16.61-12.54C48.42,764.67,39.08,752.53,33.11,738a11.15,11.15,0,0,0-.74-1.3l-.48.07a17.87,17.87,0,0,0-.37,2.7c.19,14.29.45,28.59.62,42.89.11,9,.09,18.06.14,27.09,0,4.82,2.1,6.81,6.94,6.74,2.23,0,4.47-.06,6.71-.06,4.87,0,9.74,0,15,0-.57-1.2-1-2-1.37-2.91-3.09-7,.13-14.13,7.46-16.43,1.59-.5,3.21-.95,4.77-1.55A11.05,11.05,0,0,0,77.19,791ZM66,795.59c-7.08,2.5-10.52,9-8.47,16.23l.67,2.39c-1,0-1.69.11-2.4.11H40c-.64,0-1.28,0-1.92-.05-2.77-.21-3.94-1.2-4.13-4-.29-4-.46-8-.5-12-.08-6.55.09-13.1,0-19.65-.18-9.34-.56-18.68-.81-28-.07-2.77,0-5.54,0-8.78.58.53.86.68,1,.91,5.41,11,12.91,20.55,21.21,29.45a156.66,156.66,0,0,0,12.44,11.58,57.56,57.56,0,0,0,7,4.64c1.63,1,1.76,1.55.37,2.9a8.08,8.08,0,0,1-2.12,1.52C70.33,793.85,68.22,794.82,66,795.59Z"/><path d="M504,40.91c1.47.69,1.73.56,2.49-1.13a15.32,15.32,0,0,1,9.93-8.72c1.48-.47,2.91-1.09,4.36-1.64-1.81-.11-5.55-.34-10.19-.59-2.32-.13-4.86-.26-7.5-.38-13.2-.63-28.78-1.13-30.64-.13a1.43,1.43,0,0,0,.38.28C483.36,32.32,493.85,36.15,504,40.91Zm9-10.26c-.52.27-1,.56-1.57.82a12.46,12.46,0,0,0-6.14,5.78c-.85,1.78-1.58,2.06-3.24,1.39-6.94-2.79-13.86-5.65-20.79-8.49-.2-.08-.34-.29-.93-.81C491.52,28.69,502.18,30.08,513,30.65Z"/><path d="M503.08,28.45c-13.2-.63-28.78-1.13-30.64-.13h0C474.3,27.32,489.88,27.82,503.08,28.45Z"/><path d="M503.08,28.45c2.64.12,5.18.25,7.5.38C508.26,28.7,505.72,28.57,503.08,28.45Z"/><path d="M101,803.84c-.23.54-.5,1.1-.7,1.68a12.46,12.46,0,0,1-6.43,7.4c-1.49.75-3.08,1.3-4.63,1.93l-3.94,1.6c5.61,1.3,46.83,1.75,49.61.68-5.49-2.24-11-4.54-16.57-6.72S107,806.12,101,803.84ZM95.45,815a44.74,44.74,0,0,0,4-3.94,45.62,45.62,0,0,0,3-4.94l24.64,9.5C122.89,816.66,99,815.85,95.45,815Z"/><path d="M505.48,806.39a4.73,4.73,0,0,0-.31-.64A1.54,1.54,0,0,0,503,805l-1.31.58a235.18,235.18,0,0,1-29,11.23c-.72.22-1.41.54-2.45.94,6.84,1,46.46.28,49.81-.89-1.87-.69-3.5-1.28-5.12-1.89C510.61,813.38,507.19,810.83,505.48,806.39Zm-26,10.26c0-.2-.07-.41-.1-.62l23.74-9.46c1.39,4.55,4.81,6.84,8.53,8.95C500.85,816,490.18,817.23,479.47,816.65Z"/><path d="M99.15,35.26A63.58,63.58,0,0,1,102.3,41c2.27-.88,4.4-1.74,6.55-2.54,3.21-1.19,6.48-2.24,9.65-3.51,5.84-2.34,11.48-5.21,17.6-6.81.28-.07.5-.36.75-.54l-.15-.49c-16.39-.34-32.73.95-49.15,1.55,2,1,4.07,1.72,6.08,2.56A11.94,11.94,0,0,1,99.15,35.26Zm-2.48-5.4a.4.4,0,0,1,.18-.16,4.93,4.93,0,0,1,.92-.22q12.32-.42,24.65-.82a31.51,31.51,0,0,1,5.54.28,255.08,255.08,0,0,1-24.51,9.83c-1.7-3.51-3.41-6.78-6.74-8.51A1.55,1.55,0,0,1,96.67,29.86Z"/></svg>